<?xml version="1.0" encoding="utf-8" standalone="no"?>
<!DOCTYPE svg PUBLIC "-//W3C//DTD SVG 1.1//EN"
  "http://www.w3.org/Graphics/SVG/1.1/DTD/svg11.dtd">
<svg xmlns:xlink="http://www.w3.org/1999/xlink" width="762.12pt" height="374.76pt" viewBox="0 0 762.12 374.76" xmlns="http://www.w3.org/2000/svg" version="1.1">
 <metadata>
  <rdf:RDF xmlns:dc="http://purl.org/dc/elements/1.1/" xmlns:cc="http://creativecommons.org/ns#" xmlns:rdf="http://www.w3.org/1999/02/22-rdf-syntax-ns#">
   <cc:Work>
    <dc:type rdf:resource="http://purl.org/dc/dcmitype/StillImage"/>
    <dc:date>2026-04-18T09:42:41.189265</dc:date>
    <dc:format>image/svg+xml</dc:format>
    <dc:creator>
     <cc:Agent>
      <dc:title>Matplotlib v3.10.1, https://matplotlib.org/</dc:title>
     </cc:Agent>
    </dc:creator>
   </cc:Work>
  </rdf:RDF>
 </metadata>
 <defs>
  <style type="text/css">*{stroke-linejoin: round; stroke-linecap: butt}</style>
 </defs>
 <g id="figure_1">
  <g id="patch_1">
   <path d="M 0 374.76 
L 762.12 374.76 
L 762.12 0 
L 0 0 
z
" style="fill: #ffffff"/>
  </g>
  <g id="axes_1">
   <g id="patch_2">
    <path d="M 44.586 363.27 
L 515.6496 363.27 
L 515.6496 24.36 
L 44.586 24.36 
z
" clip-path="url(#p184fcc3691)" style="fill: #fbfcff; stroke-dasharray: 15.4,11; stroke-dashoffset: 0; stroke: #a8bee1; stroke-width: 2.2; stroke-linejoin: miter"/>
   </g>
   <g id="patch_3">
    <path d="M 545.5584 290.34 
L 725.0112 290.34 
L 725.0112 118.74 
L 545.5584 118.74 
z
" clip-path="url(#p184fcc3691)" style="fill: #fbfcff; stroke-dasharray: 15.4,11; stroke-dashoffset: 0; stroke: #a8bee1; stroke-width: 2.2; stroke-linejoin: miter"/>
   </g>
   <g id="patch_4">
    <path d="M 82.031818 84.47148 
L 246.410582 84.47148 
Q 246.560126 84.47148 246.560126 84.38568 
L 246.560126 50.13432 
Q 246.560126 50.04852 246.410582 50.04852 
L 82.031818 50.04852 
Q 81.882274 50.04852 81.882274 50.13432 
L 81.882274 84.38568 
Q 81.882274 84.47148 82.031818 84.47148 
z
" clip-path="url(#p184fcc3691)" style="fill: #eef4ff; stroke: #173d7a; stroke-width: 2.4; stroke-linejoin: miter"/>
   </g>
   <g id="patch_5">
    <path d="M 306.347818 84.47148 
L 470.726582 84.47148 
Q 470.876126 84.47148 470.876126 84.38568 
L 470.876126 50.13432 
Q 470.876126 50.04852 470.726582 50.04852 
L 306.347818 50.04852 
Q 306.198274 50.04852 306.198274 50.13432 
L 306.198274 84.38568 
Q 306.198274 84.47148 306.347818 84.47148 
z
" clip-path="url(#p184fcc3691)" style="fill: #eef9f2; stroke: #173d7a; stroke-width: 2.4; stroke-linejoin: miter"/>
   </g>
   <g id="patch_6">
    <path d="M 82.031818 144.53148 
L 246.410582 144.53148 
Q 246.560126 144.53148 246.560126 144.44568 
L 246.560126 105.90432 
Q 246.560126 105.81852 246.410582 105.81852 
L 82.031818 105.81852 
Q 81.882274 105.81852 81.882274 105.90432 
L 81.882274 144.44568 
Q 81.882274 144.53148 82.031818 144.53148 
z
" clip-path="url(#p184fcc3691)" style="fill: #eef4ff; stroke: #173d7a; stroke-width: 2.4; stroke-linejoin: miter"/>
   </g>
   <g id="patch_7">
    <path d="M 306.347818 144.53148 
L 470.726582 144.53148 
Q 470.876126 144.53148 470.876126 144.44568 
L 470.876126 105.90432 
Q 470.876126 105.81852 470.726582 105.81852 
L 306.347818 105.81852 
Q 306.198274 105.81852 306.198274 105.90432 
L 306.198274 144.44568 
Q 306.198274 144.53148 306.347818 144.53148 
z
" clip-path="url(#p184fcc3691)" style="fill: #eef9f2; stroke: #173d7a; stroke-width: 2.4; stroke-linejoin: miter"/>
   </g>
   <g id="patch_8">
    <path d="M 194.189818 200.30148 
L 358.568582 200.30148 
Q 358.718126 200.30148 358.718126 200.21568 
L 358.718126 161.67432 
Q 358.718126 161.58852 358.568582 161.58852 
L 194.189818 161.58852 
Q 194.040274 161.58852 194.040274 161.67432 
L 194.040274 200.21568 
Q 194.040274 200.30148 194.189818 200.30148 
z
" clip-path="url(#p184fcc3691)" style="fill: #eef9f2; stroke: #173d7a; stroke-width: 2.4; stroke-linejoin: miter"/>
   </g>
   <g id="patch_9">
    <path d="M 171.758218 247.49148 
L 381.000182 247.49148 
Q 381.149726 247.49148 381.149726 247.40568 
L 381.149726 208.86432 
Q 381.149726 208.77852 381.000182 208.77852 
L 171.758218 208.77852 
Q 171.608674 208.77852 171.608674 208.86432 
L 171.608674 247.40568 
Q 171.608674 247.49148 171.758218 247.49148 
z
" clip-path="url(#p184fcc3691)" style="fill: #f6eeff; stroke: #173d7a; stroke-width: 2.4; stroke-linejoin: miter"/>
   </g>
   <g id="patch_10">
    <path d="M 216.621418 283.95648 
L 336.136982 283.95648 
Q 336.286526 283.95648 336.286526 283.87068 
L 336.286526 253.90932 
Q 336.286526 253.82352 336.136982 253.82352 
L 216.621418 253.82352 
Q 216.471874 253.82352 216.471874 253.90932 
L 216.471874 283.87068 
Q 216.471874 283.95648 216.621418 283.95648 
z
" clip-path="url(#p184fcc3691)" style="fill: #eef4ff; stroke: #173d7a; stroke-width: 2.4; stroke-linejoin: miter"/>
   </g>
   <g id="patch_11">
    <path d="M 67.077418 324.71148 
L 231.456182 324.71148 
Q 231.605726 324.71148 231.605726 324.62568 
L 231.605726 290.37432 
Q 231.605726 290.28852 231.456182 290.28852 
L 67.077418 290.28852 
Q 66.927874 290.28852 66.927874 290.37432 
L 66.927874 324.62568 
Q 66.927874 324.71148 67.077418 324.71148 
z
" clip-path="url(#p184fcc3691)" style="fill: #fff8e8; stroke: #173d7a; stroke-width: 2.4; stroke-linejoin: miter"/>
   </g>
   <g id="patch_12">
    <path d="M 321.302218 324.71148 
L 485.680982 324.71148 
Q 485.830526 324.71148 485.830526 324.62568 
L 485.830526 290.37432 
Q 485.830526 290.28852 485.680982 290.28852 
L 321.302218 290.28852 
Q 321.152674 290.28852 321.152674 290.37432 
L 321.152674 324.62568 
Q 321.152674 324.71148 321.302218 324.71148 
z
" clip-path="url(#p184fcc3691)" style="fill: #eef9f2; stroke: #173d7a; stroke-width: 2.4; stroke-linejoin: miter"/>
   </g>
   <g id="patch_13">
    <path d="M 209.144218 356.88648 
L 343.614182 356.88648 
Q 343.763726 356.88648 343.763726 356.80068 
L 343.763726 331.12932 
Q 343.763726 331.04352 343.614182 331.04352 
L 209.144218 331.04352 
Q 208.994674 331.04352 208.994674 331.12932 
L 208.994674 356.80068 
Q 208.994674 356.88648 209.144218 356.88648 
z
" clip-path="url(#p184fcc3691)" style="fill: #eef4ff; stroke: #173d7a; stroke-width: 2.4; stroke-linejoin: miter"/>
   </g>
   <g id="patch_14">
    <path d="M 564.311218 172.41648 
L 706.258382 172.41648 
Q 706.407926 172.41648 706.407926 172.33068 
L 706.407926 138.93732 
Q 706.407926 138.85152 706.258382 138.85152 
L 564.311218 138.85152 
Q 564.161674 138.85152 564.161674 138.93732 
L 564.161674 172.33068 
Q 564.161674 172.41648 564.311218 172.41648 
z
" clip-path="url(#p184fcc3691)" style="fill: #eef4ff; stroke: #173d7a; stroke-width: 2.4; stroke-linejoin: miter"/>
   </g>
   <g id="patch_15">
    <path d="M 560.572618 223.89648 
L 709.996982 223.89648 
Q 710.146526 223.89648 710.146526 223.81068 
L 710.146526 189.55932 
Q 710.146526 189.47352 709.996982 189.47352 
L 560.572618 189.47352 
Q 560.423074 189.47352 560.423074 189.55932 
L 560.423074 223.81068 
Q 560.423074 223.89648 560.572618 223.89648 
z
" clip-path="url(#p184fcc3691)" style="fill: #fff8e8; stroke: #173d7a; stroke-width: 2.4; stroke-linejoin: miter"/>
   </g>
   <g id="patch_16">
    <path d="M 590.481418 271.08648 
L 680.088182 271.08648 
Q 680.237726 271.08648 680.237726 271.00068 
L 680.237726 241.03932 
Q 680.237726 240.95352 680.088182 240.95352 
L 590.481418 240.95352 
Q 590.331874 240.95352 590.331874 241.03932 
L 590.331874 271.00068 
Q 590.331874 271.08648 590.481418 271.08648 
z
" clip-path="url(#p184fcc3691)" style="fill: #eef9f2; stroke: #173d7a; stroke-width: 2.4; stroke-linejoin: miter"/>
   </g>
   <g id="patch_17">
    <path d="M 164.2212 84.42 
Q 164.2212 95.145 164.2212 102.739505 
" clip-path="url(#p184fcc3691)" style="fill: none; stroke: #173d7a; stroke-width: 2.8; stroke-linecap: round"/>
    <path d="M 167.8212 95.539505 
L 164.2212 102.739505 
L 160.6212 95.539505 
z
" clip-path="url(#p184fcc3691)" style="fill: #173d7a; stroke: #173d7a; stroke-width: 2.8; stroke-linecap: round"/>
   </g>
   <g id="patch_18">
    <path d="M 388.5372 84.42 
Q 388.5372 95.145 388.5372 102.739505 
" clip-path="url(#p184fcc3691)" style="fill: none; stroke: #173d7a; stroke-width: 2.8; stroke-linecap: round"/>
    <path d="M 392.1372 95.539505 
L 388.5372 102.739505 
L 384.9372 95.539505 
z
" clip-path="url(#p184fcc3691)" style="fill: #173d7a; stroke: #173d7a; stroke-width: 2.8; stroke-linecap: round"/>
   </g>
   <g id="patch_19">
    <path d="M 164.2212 144.48 
Q 212.823 153.06 258.341975 161.095768 
" clip-path="url(#p184fcc3691)" style="fill: none; stroke: #173d7a; stroke-width: 2.8; stroke-linecap: round"/>
    <path d="M 251.877468 156.298879 
L 258.341975 161.095768 
L 250.625759 163.38924 
z
" clip-path="url(#p184fcc3691)" style="fill: #173d7a; stroke: #173d7a; stroke-width: 2.8; stroke-linecap: round"/>
   </g>
   <g id="patch_20">
    <path d="M 388.5372 144.48 
Q 339.9354 153.06 294.416425 161.095768 
" clip-path="url(#p184fcc3691)" style="fill: none; stroke: #173d7a; stroke-width: 2.8; stroke-linecap: round"/>
    <path d="M 302.132641 163.38924 
L 294.416425 161.095768 
L 300.880932 156.298879 
z
" clip-path="url(#p184fcc3691)" style="fill: #173d7a; stroke: #173d7a; stroke-width: 2.8; stroke-linecap: round"/>
   </g>
   <g id="patch_21">
    <path d="M 276.3792 200.25 
Q 276.3792 204.54 276.3792 205.699505 
" clip-path="url(#p184fcc3691)" style="fill: none; stroke: #173d7a; stroke-width: 2.8; stroke-linecap: round"/>
    <path d="M 279.9792 198.499505 
L 276.3792 205.699505 
L 272.7792 198.499505 
z
" clip-path="url(#p184fcc3691)" style="fill: #173d7a; stroke: #173d7a; stroke-width: 2.8; stroke-linecap: round"/>
   </g>
   <g id="patch_22">
    <path d="M 276.3792 247.44 
Q 276.3792 250.6575 276.3792 250.744505 
" clip-path="url(#p184fcc3691)" style="fill: none; stroke: #173d7a; stroke-width: 2.8; stroke-linecap: round"/>
    <path d="M 279.9792 243.544505 
L 276.3792 250.744505 
L 272.7792 243.544505 
z
" clip-path="url(#p184fcc3691)" style="fill: #173d7a; stroke: #173d7a; stroke-width: 2.8; stroke-linecap: round"/>
   </g>
   <g id="patch_23">
    <path d="M 246.4704 283.905 
Q 197.8686 287.1225 152.390458 290.13321 
" clip-path="url(#p184fcc3691)" style="fill: none; stroke: #173d7a; stroke-width: 2.8; stroke-linecap: round"/>
    <path d="M 159.812536 293.249739 
L 152.390458 290.13321 
L 159.336928 286.065465 
z
" clip-path="url(#p184fcc3691)" style="fill: #173d7a; stroke: #173d7a; stroke-width: 2.8; stroke-linecap: round"/>
   </g>
   <g id="patch_24">
    <path d="M 306.288 283.905 
Q 354.8898 287.1225 400.367942 290.13321 
" clip-path="url(#p184fcc3691)" style="fill: none; stroke: #173d7a; stroke-width: 2.8; stroke-linecap: round"/>
    <path d="M 393.421472 286.065465 
L 400.367942 290.13321 
L 392.945864 293.249739 
z
" clip-path="url(#p184fcc3691)" style="fill: #173d7a; stroke: #173d7a; stroke-width: 2.8; stroke-linecap: round"/>
   </g>
   <g id="patch_25">
    <path d="M 149.2668 324.66 
Q 199.7379 327.8775 247.084847 330.895837 
" clip-path="url(#p184fcc3691)" style="fill: none; stroke: #173d7a; stroke-width: 2.8; stroke-linecap: round"/>
    <path d="M 240.128465 326.845065 
L 247.084847 330.895837 
L 239.6704 334.030479 
z
" clip-path="url(#p184fcc3691)" style="fill: #173d7a; stroke: #173d7a; stroke-width: 2.8; stroke-linecap: round"/>
   </g>
   <g id="patch_26">
    <path d="M 403.4916 324.66 
Q 353.0205 327.8775 305.673553 330.895837 
" clip-path="url(#p184fcc3691)" style="fill: none; stroke: #173d7a; stroke-width: 2.8; stroke-linecap: round"/>
    <path d="M 313.088 334.030479 
L 305.673553 330.895837 
L 312.629935 326.845065 
z
" clip-path="url(#p184fcc3691)" style="fill: #173d7a; stroke: #173d7a; stroke-width: 2.8; stroke-linecap: round"/>
   </g>
   <g id="patch_27">
    <path d="M 343.674 343.965 
Q 560.5128 343.965 560.5128 209.815495 
" clip-path="url(#p184fcc3691)" style="fill: none; stroke: #173d7a; stroke-width: 2.8; stroke-linecap: round"/>
    <path d="M 556.9128 217.015495 
L 560.5128 209.815495 
L 564.1128 217.015495 
z
" clip-path="url(#p184fcc3691)" style="fill: #173d7a; stroke: #173d7a; stroke-width: 2.8; stroke-linecap: round"/>
   </g>
   <g id="patch_28">
    <path d="M 635.2848 172.365 
Q 635.2848 180.945 635.2848 186.394505 
" clip-path="url(#p184fcc3691)" style="fill: none; stroke: #173d7a; stroke-width: 2.8; stroke-linecap: round"/>
    <path d="M 638.8848 179.194505 
L 635.2848 186.394505 
L 631.6848 179.194505 
z
" clip-path="url(#p184fcc3691)" style="fill: #173d7a; stroke: #173d7a; stroke-width: 2.8; stroke-linecap: round"/>
   </g>
   <g id="patch_29">
    <path d="M 635.2848 223.845 
Q 635.2848 232.425 635.2848 237.874505 
" clip-path="url(#p184fcc3691)" style="fill: none; stroke: #173d7a; stroke-width: 2.8; stroke-linecap: round"/>
    <path d="M 638.8848 230.674505 
L 635.2848 237.874505 
L 631.6848 230.674505 
z
" clip-path="url(#p184fcc3691)" style="fill: #173d7a; stroke: #173d7a; stroke-width: 2.8; stroke-linecap: round"/>
   </g>
   <g id="line2d_1">
    <path d="M 332.4582 320.37 
L 474.525 294.63 
" clip-path="url(#p184fcc3691)" style="fill: none; stroke: #b91c1c; stroke-width: 3.2; stroke-linecap: round"/>
   </g>
   <g id="line2d_2">
    <path d="M 332.4582 294.63 
L 474.525 320.37 
" clip-path="url(#p184fcc3691)" style="fill: none; stroke: #b91c1c; stroke-width: 3.2; stroke-linecap: round"/>
   </g>
   <g id="text_1">
    <!-- Claim + context -->
    <g style="fill: #173d7a" transform="translate(106.101044 70.847188) scale(0.13 -0.13)">
     <defs>
      <path id="DejaVuSans-Bold-43" d="M 4288 256 
Q 3956 84 3597 -3 
Q 3238 -91 2847 -91 
Q 1681 -91 1000 561 
Q 319 1213 319 2328 
Q 319 3447 1000 4098 
Q 1681 4750 2847 4750 
Q 3238 4750 3597 4662 
Q 3956 4575 4288 4403 
L 4288 3438 
Q 3953 3666 3628 3772 
Q 3303 3878 2944 3878 
Q 2300 3878 1931 3465 
Q 1563 3053 1563 2328 
Q 1563 1606 1931 1193 
Q 2300 781 2944 781 
Q 3303 781 3628 887 
Q 3953 994 4288 1222 
L 4288 256 
z
" transform="scale(0.015625)"/>
      <path id="DejaVuSans-Bold-6c" d="M 538 4863 
L 1656 4863 
L 1656 0 
L 538 0 
L 538 4863 
z
" transform="scale(0.015625)"/>
      <path id="DejaVuSans-Bold-61" d="M 2106 1575 
Q 1756 1575 1579 1456 
Q 1403 1338 1403 1106 
Q 1403 894 1545 773 
Q 1688 653 1941 653 
Q 2256 653 2472 879 
Q 2688 1106 2688 1447 
L 2688 1575 
L 2106 1575 
z
M 3816 1997 
L 3816 0 
L 2688 0 
L 2688 519 
Q 2463 200 2181 54 
Q 1900 -91 1497 -91 
Q 953 -91 614 226 
Q 275 544 275 1050 
Q 275 1666 698 1953 
Q 1122 2241 2028 2241 
L 2688 2241 
L 2688 2328 
Q 2688 2594 2478 2717 
Q 2269 2841 1825 2841 
Q 1466 2841 1156 2769 
Q 847 2697 581 2553 
L 581 3406 
Q 941 3494 1303 3539 
Q 1666 3584 2028 3584 
Q 2975 3584 3395 3211 
Q 3816 2838 3816 1997 
z
" transform="scale(0.015625)"/>
      <path id="DejaVuSans-Bold-69" d="M 538 3500 
L 1656 3500 
L 1656 0 
L 538 0 
L 538 3500 
z
M 538 4863 
L 1656 4863 
L 1656 3950 
L 538 3950 
L 538 4863 
z
" transform="scale(0.015625)"/>
      <path id="DejaVuSans-Bold-6d" d="M 3781 2919 
Q 3994 3244 4286 3414 
Q 4578 3584 4928 3584 
Q 5531 3584 5847 3212 
Q 6163 2841 6163 2131 
L 6163 0 
L 5038 0 
L 5038 1825 
Q 5041 1866 5042 1909 
Q 5044 1953 5044 2034 
Q 5044 2406 4934 2573 
Q 4825 2741 4581 2741 
Q 4263 2741 4089 2478 
Q 3916 2216 3909 1719 
L 3909 0 
L 2784 0 
L 2784 1825 
Q 2784 2406 2684 2573 
Q 2584 2741 2328 2741 
Q 2006 2741 1831 2477 
Q 1656 2213 1656 1722 
L 1656 0 
L 531 0 
L 531 3500 
L 1656 3500 
L 1656 2988 
Q 1863 3284 2130 3434 
Q 2397 3584 2719 3584 
Q 3081 3584 3359 3409 
Q 3638 3234 3781 2919 
z
" transform="scale(0.015625)"/>
      <path id="DejaVuSans-Bold-20" transform="scale(0.015625)"/>
      <path id="DejaVuSans-Bold-2b" d="M 3053 4013 
L 3053 2375 
L 4684 2375 
L 4684 1638 
L 3053 1638 
L 3053 0 
L 2309 0 
L 2309 1638 
L 678 1638 
L 678 2375 
L 2309 2375 
L 2309 4013 
L 3053 4013 
z
" transform="scale(0.015625)"/>
      <path id="DejaVuSans-Bold-63" d="M 3366 3391 
L 3366 2478 
Q 3138 2634 2908 2709 
Q 2678 2784 2431 2784 
Q 1963 2784 1702 2511 
Q 1441 2238 1441 1747 
Q 1441 1256 1702 982 
Q 1963 709 2431 709 
Q 2694 709 2930 787 
Q 3166 866 3366 1019 
L 3366 103 
Q 3103 6 2833 -42 
Q 2563 -91 2291 -91 
Q 1344 -91 809 395 
Q 275 881 275 1747 
Q 275 2613 809 3098 
Q 1344 3584 2291 3584 
Q 2566 3584 2833 3536 
Q 3100 3488 3366 3391 
z
" transform="scale(0.015625)"/>
      <path id="DejaVuSans-Bold-6f" d="M 2203 2784 
Q 1831 2784 1636 2517 
Q 1441 2250 1441 1747 
Q 1441 1244 1636 976 
Q 1831 709 2203 709 
Q 2569 709 2762 976 
Q 2956 1244 2956 1747 
Q 2956 2250 2762 2517 
Q 2569 2784 2203 2784 
z
M 2203 3584 
Q 3106 3584 3614 3096 
Q 4122 2609 4122 1747 
Q 4122 884 3614 396 
Q 3106 -91 2203 -91 
Q 1297 -91 786 396 
Q 275 884 275 1747 
Q 275 2609 786 3096 
Q 1297 3584 2203 3584 
z
" transform="scale(0.015625)"/>
      <path id="DejaVuSans-Bold-6e" d="M 4056 2131 
L 4056 0 
L 2931 0 
L 2931 347 
L 2931 1631 
Q 2931 2084 2911 2256 
Q 2891 2428 2841 2509 
Q 2775 2619 2662 2680 
Q 2550 2741 2406 2741 
Q 2056 2741 1856 2470 
Q 1656 2200 1656 1722 
L 1656 0 
L 538 0 
L 538 3500 
L 1656 3500 
L 1656 2988 
Q 1909 3294 2193 3439 
Q 2478 3584 2822 3584 
Q 3428 3584 3742 3212 
Q 4056 2841 4056 2131 
z
" transform="scale(0.015625)"/>
      <path id="DejaVuSans-Bold-74" d="M 1759 4494 
L 1759 3500 
L 2913 3500 
L 2913 2700 
L 1759 2700 
L 1759 1216 
Q 1759 972 1856 886 
Q 1953 800 2241 800 
L 2816 800 
L 2816 0 
L 1856 0 
Q 1194 0 917 276 
Q 641 553 641 1216 
L 641 2700 
L 84 2700 
L 84 3500 
L 641 3500 
L 641 4494 
L 1759 4494 
z
" transform="scale(0.015625)"/>
      <path id="DejaVuSans-Bold-65" d="M 4031 1759 
L 4031 1441 
L 1416 1441 
Q 1456 1047 1700 850 
Q 1944 653 2381 653 
Q 2734 653 3104 758 
Q 3475 863 3866 1075 
L 3866 213 
Q 3469 63 3072 -14 
Q 2675 -91 2278 -91 
Q 1328 -91 801 392 
Q 275 875 275 1747 
Q 275 2603 792 3093 
Q 1309 3584 2216 3584 
Q 3041 3584 3536 3087 
Q 4031 2591 4031 1759 
z
M 2881 2131 
Q 2881 2450 2695 2645 
Q 2509 2841 2209 2841 
Q 1884 2841 1681 2658 
Q 1478 2475 1428 2131 
L 2881 2131 
z
" transform="scale(0.015625)"/>
      <path id="DejaVuSans-Bold-78" d="M 1422 1791 
L 159 3500 
L 1344 3500 
L 2059 2463 
L 2784 3500 
L 3969 3500 
L 2706 1797 
L 4031 0 
L 2847 0 
L 2059 1106 
L 1281 0 
L 97 0 
L 1422 1791 
z
" transform="scale(0.015625)"/>
     </defs>
     <use xlink:href="#DejaVuSans-Bold-43"/>
     <use xlink:href="#DejaVuSans-Bold-6c" transform="translate(73.388672 0)"/>
     <use xlink:href="#DejaVuSans-Bold-61" transform="translate(107.666016 0)"/>
     <use xlink:href="#DejaVuSans-Bold-69" transform="translate(175.146484 0)"/>
     <use xlink:href="#DejaVuSans-Bold-6d" transform="translate(209.423828 0)"/>
     <use xlink:href="#DejaVuSans-Bold-20" transform="translate(313.623047 0)"/>
     <use xlink:href="#DejaVuSans-Bold-2b" transform="translate(348.4375 0)"/>
     <use xlink:href="#DejaVuSans-Bold-20" transform="translate(432.226562 0)"/>
     <use xlink:href="#DejaVuSans-Bold-63" transform="translate(467.041016 0)"/>
     <use xlink:href="#DejaVuSans-Bold-6f" transform="translate(526.318359 0)"/>
     <use xlink:href="#DejaVuSans-Bold-6e" transform="translate(595.019531 0)"/>
     <use xlink:href="#DejaVuSans-Bold-74" transform="translate(666.210938 0)"/>
     <use xlink:href="#DejaVuSans-Bold-65" transform="translate(714.013672 0)"/>
     <use xlink:href="#DejaVuSans-Bold-78" transform="translate(781.835938 0)"/>
     <use xlink:href="#DejaVuSans-Bold-74" transform="translate(846.337891 0)"/>
    </g>
   </g>
   <g id="text_2">
    <!-- Eye movements -->
    <g style="fill: #173d7a" transform="translate(330.518606 70.745625) scale(0.13 -0.13)">
     <defs>
      <path id="DejaVuSans-Bold-45" d="M 588 4666 
L 3834 4666 
L 3834 3756 
L 1791 3756 
L 1791 2888 
L 3713 2888 
L 3713 1978 
L 1791 1978 
L 1791 909 
L 3903 909 
L 3903 0 
L 588 0 
L 588 4666 
z
" transform="scale(0.015625)"/>
      <path id="DejaVuSans-Bold-79" d="M 78 3500 
L 1197 3500 
L 2138 1125 
L 2938 3500 
L 4056 3500 
L 2584 -331 
Q 2363 -916 2067 -1148 
Q 1772 -1381 1288 -1381 
L 641 -1381 
L 641 -647 
L 991 -647 
Q 1275 -647 1404 -556 
Q 1534 -466 1606 -231 
L 1638 -134 
L 78 3500 
z
" transform="scale(0.015625)"/>
      <path id="DejaVuSans-Bold-76" d="M 97 3500 
L 1216 3500 
L 2088 1081 
L 2956 3500 
L 4078 3500 
L 2700 0 
L 1472 0 
L 97 3500 
z
" transform="scale(0.015625)"/>
      <path id="DejaVuSans-Bold-73" d="M 3272 3391 
L 3272 2541 
Q 2913 2691 2578 2766 
Q 2244 2841 1947 2841 
Q 1628 2841 1473 2761 
Q 1319 2681 1319 2516 
Q 1319 2381 1436 2309 
Q 1553 2238 1856 2203 
L 2053 2175 
Q 2913 2066 3209 1816 
Q 3506 1566 3506 1031 
Q 3506 472 3093 190 
Q 2681 -91 1863 -91 
Q 1516 -91 1145 -36 
Q 775 19 384 128 
L 384 978 
Q 719 816 1070 734 
Q 1422 653 1784 653 
Q 2113 653 2278 743 
Q 2444 834 2444 1013 
Q 2444 1163 2330 1236 
Q 2216 1309 1875 1350 
L 1678 1375 
Q 931 1469 631 1722 
Q 331 1975 331 2491 
Q 331 3047 712 3315 
Q 1094 3584 1881 3584 
Q 2191 3584 2531 3537 
Q 2872 3491 3272 3391 
z
" transform="scale(0.015625)"/>
     </defs>
     <use xlink:href="#DejaVuSans-Bold-45"/>
     <use xlink:href="#DejaVuSans-Bold-79" transform="translate(68.310547 0)"/>
     <use xlink:href="#DejaVuSans-Bold-65" transform="translate(133.496094 0)"/>
     <use xlink:href="#DejaVuSans-Bold-20" transform="translate(201.318359 0)"/>
     <use xlink:href="#DejaVuSans-Bold-6d" transform="translate(236.132812 0)"/>
     <use xlink:href="#DejaVuSans-Bold-6f" transform="translate(340.332031 0)"/>
     <use xlink:href="#DejaVuSans-Bold-76" transform="translate(409.033203 0)"/>
     <use xlink:href="#DejaVuSans-Bold-65" transform="translate(474.21875 0)"/>
     <use xlink:href="#DejaVuSans-Bold-6d" transform="translate(542.041016 0)"/>
     <use xlink:href="#DejaVuSans-Bold-65" transform="translate(646.240234 0)"/>
     <use xlink:href="#DejaVuSans-Bold-6e" transform="translate(714.0625 0)"/>
     <use xlink:href="#DejaVuSans-Bold-74" transform="translate(785.253906 0)"/>
     <use xlink:href="#DejaVuSans-Bold-73" transform="translate(833.056641 0)"/>
    </g>
   </g>
   <g id="text_3">
    <!-- Text encoder -->
    <g style="fill: #173d7a" transform="translate(117.055575 128.762187) scale(0.13 -0.13)">
     <defs>
      <path id="DejaVuSans-Bold-54" d="M 31 4666 
L 4331 4666 
L 4331 3756 
L 2784 3756 
L 2784 0 
L 1581 0 
L 1581 3756 
L 31 3756 
L 31 4666 
z
" transform="scale(0.015625)"/>
      <path id="DejaVuSans-Bold-64" d="M 2919 2988 
L 2919 4863 
L 4044 4863 
L 4044 0 
L 2919 0 
L 2919 506 
Q 2688 197 2409 53 
Q 2131 -91 1766 -91 
Q 1119 -91 703 423 
Q 288 938 288 1747 
Q 288 2556 703 3070 
Q 1119 3584 1766 3584 
Q 2128 3584 2408 3439 
Q 2688 3294 2919 2988 
z
M 2181 722 
Q 2541 722 2730 984 
Q 2919 1247 2919 1747 
Q 2919 2247 2730 2509 
Q 2541 2772 2181 2772 
Q 1825 2772 1636 2509 
Q 1447 2247 1447 1747 
Q 1447 1247 1636 984 
Q 1825 722 2181 722 
z
" transform="scale(0.015625)"/>
      <path id="DejaVuSans-Bold-72" d="M 3138 2547 
Q 2991 2616 2845 2648 
Q 2700 2681 2553 2681 
Q 2122 2681 1889 2404 
Q 1656 2128 1656 1613 
L 1656 0 
L 538 0 
L 538 3500 
L 1656 3500 
L 1656 2925 
Q 1872 3269 2151 3426 
Q 2431 3584 2822 3584 
Q 2878 3584 2943 3579 
Q 3009 3575 3134 3559 
L 3138 2547 
z
" transform="scale(0.015625)"/>
     </defs>
     <use xlink:href="#DejaVuSans-Bold-54"/>
     <use xlink:href="#DejaVuSans-Bold-65" transform="translate(54.962891 0)"/>
     <use xlink:href="#DejaVuSans-Bold-78" transform="translate(122.785156 0)"/>
     <use xlink:href="#DejaVuSans-Bold-74" transform="translate(187.287109 0)"/>
     <use xlink:href="#DejaVuSans-Bold-20" transform="translate(235.089844 0)"/>
     <use xlink:href="#DejaVuSans-Bold-65" transform="translate(269.904297 0)"/>
     <use xlink:href="#DejaVuSans-Bold-6e" transform="translate(337.726562 0)"/>
     <use xlink:href="#DejaVuSans-Bold-63" transform="translate(408.917969 0)"/>
     <use xlink:href="#DejaVuSans-Bold-6f" transform="translate(468.195312 0)"/>
     <use xlink:href="#DejaVuSans-Bold-64" transform="translate(536.896484 0)"/>
     <use xlink:href="#DejaVuSans-Bold-65" transform="translate(608.478516 0)"/>
     <use xlink:href="#DejaVuSans-Bold-72" transform="translate(676.300781 0)"/>
    </g>
   </g>
   <g id="text_4">
    <!-- Gaze features -->
    <g style="fill: #173d7a" transform="translate(337.521341 128.762187) scale(0.13 -0.13)">
     <defs>
      <path id="DejaVuSans-Bold-47" d="M 4781 347 
Q 4331 128 3847 18 
Q 3363 -91 2847 -91 
Q 1681 -91 1000 561 
Q 319 1213 319 2328 
Q 319 3456 1012 4103 
Q 1706 4750 2913 4750 
Q 3378 4750 3804 4662 
Q 4231 4575 4609 4403 
L 4609 3438 
Q 4219 3659 3833 3768 
Q 3447 3878 3059 3878 
Q 2341 3878 1952 3476 
Q 1563 3075 1563 2328 
Q 1563 1588 1938 1184 
Q 2313 781 3003 781 
Q 3191 781 3352 804 
Q 3513 828 3641 878 
L 3641 1784 
L 2906 1784 
L 2906 2591 
L 4781 2591 
L 4781 347 
z
" transform="scale(0.015625)"/>
      <path id="DejaVuSans-Bold-7a" d="M 366 3500 
L 3419 3500 
L 3419 2719 
L 1575 800 
L 3419 800 
L 3419 0 
L 288 0 
L 288 781 
L 2131 2700 
L 366 2700 
L 366 3500 
z
" transform="scale(0.015625)"/>
      <path id="DejaVuSans-Bold-66" d="M 2841 4863 
L 2841 4128 
L 2222 4128 
Q 1984 4128 1890 4042 
Q 1797 3956 1797 3744 
L 1797 3500 
L 2753 3500 
L 2753 2700 
L 1797 2700 
L 1797 0 
L 678 0 
L 678 2700 
L 122 2700 
L 122 3500 
L 678 3500 
L 678 3744 
Q 678 4316 997 4589 
Q 1316 4863 1984 4863 
L 2841 4863 
z
" transform="scale(0.015625)"/>
      <path id="DejaVuSans-Bold-75" d="M 500 1363 
L 500 3500 
L 1625 3500 
L 1625 3150 
Q 1625 2866 1622 2436 
Q 1619 2006 1619 1863 
Q 1619 1441 1641 1255 
Q 1663 1069 1716 984 
Q 1784 875 1895 815 
Q 2006 756 2150 756 
Q 2500 756 2700 1025 
Q 2900 1294 2900 1772 
L 2900 3500 
L 4019 3500 
L 4019 0 
L 2900 0 
L 2900 506 
Q 2647 200 2364 54 
Q 2081 -91 1741 -91 
Q 1134 -91 817 281 
Q 500 653 500 1363 
z
" transform="scale(0.015625)"/>
     </defs>
     <use xlink:href="#DejaVuSans-Bold-47"/>
     <use xlink:href="#DejaVuSans-Bold-61" transform="translate(82.080078 0)"/>
     <use xlink:href="#DejaVuSans-Bold-7a" transform="translate(149.560547 0)"/>
     <use xlink:href="#DejaVuSans-Bold-65" transform="translate(207.763672 0)"/>
     <use xlink:href="#DejaVuSans-Bold-20" transform="translate(275.585938 0)"/>
     <use xlink:href="#DejaVuSans-Bold-66" transform="translate(310.400391 0)"/>
     <use xlink:href="#DejaVuSans-Bold-65" transform="translate(353.90625 0)"/>
     <use xlink:href="#DejaVuSans-Bold-61" transform="translate(421.728516 0)"/>
     <use xlink:href="#DejaVuSans-Bold-74" transform="translate(489.208984 0)"/>
     <use xlink:href="#DejaVuSans-Bold-75" transform="translate(537.011719 0)"/>
     <use xlink:href="#DejaVuSans-Bold-72" transform="translate(608.203125 0)"/>
     <use xlink:href="#DejaVuSans-Bold-65" transform="translate(657.519531 0)"/>
     <use xlink:href="#DejaVuSans-Bold-73" transform="translate(725.341797 0)"/>
    </g>
   </g>
   <g id="text_5">
    <!-- Fuse text and gaze -->
    <g style="fill: #173d7a" transform="translate(210.067294 184.318187) scale(0.124 -0.124)">
     <defs>
      <path id="DejaVuSans-Bold-46" d="M 588 4666 
L 3834 4666 
L 3834 3756 
L 1791 3756 
L 1791 2888 
L 3713 2888 
L 3713 1978 
L 1791 1978 
L 1791 0 
L 588 0 
L 588 4666 
z
" transform="scale(0.015625)"/>
      <path id="DejaVuSans-Bold-67" d="M 2919 594 
Q 2688 288 2409 144 
Q 2131 0 1766 0 
Q 1125 0 706 504 
Q 288 1009 288 1791 
Q 288 2575 706 3076 
Q 1125 3578 1766 3578 
Q 2131 3578 2409 3434 
Q 2688 3291 2919 2981 
L 2919 3500 
L 4044 3500 
L 4044 353 
Q 4044 -491 3511 -936 
Q 2978 -1381 1966 -1381 
Q 1638 -1381 1331 -1331 
Q 1025 -1281 716 -1178 
L 716 -306 
Q 1009 -475 1290 -558 
Q 1572 -641 1856 -641 
Q 2406 -641 2662 -400 
Q 2919 -159 2919 353 
L 2919 594 
z
M 2181 2772 
Q 1834 2772 1640 2515 
Q 1447 2259 1447 1791 
Q 1447 1309 1634 1061 
Q 1822 813 2181 813 
Q 2531 813 2725 1069 
Q 2919 1325 2919 1791 
Q 2919 2259 2725 2515 
Q 2531 2772 2181 2772 
z
" transform="scale(0.015625)"/>
     </defs>
     <use xlink:href="#DejaVuSans-Bold-46"/>
     <use xlink:href="#DejaVuSans-Bold-75" transform="translate(63.310547 0)"/>
     <use xlink:href="#DejaVuSans-Bold-73" transform="translate(134.501953 0)"/>
     <use xlink:href="#DejaVuSans-Bold-65" transform="translate(194.023438 0)"/>
     <use xlink:href="#DejaVuSans-Bold-20" transform="translate(261.845703 0)"/>
     <use xlink:href="#DejaVuSans-Bold-74" transform="translate(296.660156 0)"/>
     <use xlink:href="#DejaVuSans-Bold-65" transform="translate(344.462891 0)"/>
     <use xlink:href="#DejaVuSans-Bold-78" transform="translate(412.285156 0)"/>
     <use xlink:href="#DejaVuSans-Bold-74" transform="translate(476.787109 0)"/>
     <use xlink:href="#DejaVuSans-Bold-20" transform="translate(524.589844 0)"/>
     <use xlink:href="#DejaVuSans-Bold-61" transform="translate(559.404297 0)"/>
     <use xlink:href="#DejaVuSans-Bold-6e" transform="translate(626.884766 0)"/>
     <use xlink:href="#DejaVuSans-Bold-64" transform="translate(698.076172 0)"/>
     <use xlink:href="#DejaVuSans-Bold-20" transform="translate(769.658203 0)"/>
     <use xlink:href="#DejaVuSans-Bold-67" transform="translate(804.472656 0)"/>
     <use xlink:href="#DejaVuSans-Bold-61" transform="translate(876.054688 0)"/>
     <use xlink:href="#DejaVuSans-Bold-7a" transform="translate(943.535156 0)"/>
     <use xlink:href="#DejaVuSans-Bold-65" transform="translate(1001.738281 0)"/>
    </g>
   </g>
   <g id="text_6">
    <!-- Evidence scorer -->
    <g style="fill: #173d7a" transform="translate(218.25295 231.722187) scale(0.13 -0.13)">
     <use xlink:href="#DejaVuSans-Bold-45"/>
     <use xlink:href="#DejaVuSans-Bold-76" transform="translate(68.310547 0)"/>
     <use xlink:href="#DejaVuSans-Bold-69" transform="translate(133.496094 0)"/>
     <use xlink:href="#DejaVuSans-Bold-64" transform="translate(167.773438 0)"/>
     <use xlink:href="#DejaVuSans-Bold-65" transform="translate(239.355469 0)"/>
     <use xlink:href="#DejaVuSans-Bold-6e" transform="translate(307.177734 0)"/>
     <use xlink:href="#DejaVuSans-Bold-63" transform="translate(378.369141 0)"/>
     <use xlink:href="#DejaVuSans-Bold-65" transform="translate(437.646484 0)"/>
     <use xlink:href="#DejaVuSans-Bold-20" transform="translate(505.46875 0)"/>
     <use xlink:href="#DejaVuSans-Bold-73" transform="translate(540.283203 0)"/>
     <use xlink:href="#DejaVuSans-Bold-63" transform="translate(599.804688 0)"/>
     <use xlink:href="#DejaVuSans-Bold-6f" transform="translate(659.082031 0)"/>
     <use xlink:href="#DejaVuSans-Bold-72" transform="translate(727.783203 0)"/>
     <use xlink:href="#DejaVuSans-Bold-65" transform="translate(777.099609 0)"/>
     <use xlink:href="#DejaVuSans-Bold-72" transform="translate(844.921875 0)"/>
    </g>
   </g>
   <g id="text_7">
    <!-- Evidence weights -->
    <g style="fill: #173d7a" transform="translate(217.2867 272.154375) scale(0.12 -0.12)">
     <defs>
      <path id="DejaVuSans-Bold-77" d="M 225 3500 
L 1313 3500 
L 1900 1088 
L 2491 3500 
L 3425 3500 
L 4013 1113 
L 4603 3500 
L 5691 3500 
L 4769 0 
L 3547 0 
L 2956 2406 
L 2369 0 
L 1147 0 
L 225 3500 
z
" transform="scale(0.015625)"/>
      <path id="DejaVuSans-Bold-68" d="M 4056 2131 
L 4056 0 
L 2931 0 
L 2931 347 
L 2931 1625 
Q 2931 2084 2911 2256 
Q 2891 2428 2841 2509 
Q 2775 2619 2662 2680 
Q 2550 2741 2406 2741 
Q 2056 2741 1856 2470 
Q 1656 2200 1656 1722 
L 1656 0 
L 538 0 
L 538 4863 
L 1656 4863 
L 1656 2988 
Q 1909 3294 2193 3439 
Q 2478 3584 2822 3584 
Q 3428 3584 3742 3212 
Q 4056 2841 4056 2131 
z
" transform="scale(0.015625)"/>
     </defs>
     <use xlink:href="#DejaVuSans-Bold-45"/>
     <use xlink:href="#DejaVuSans-Bold-76" transform="translate(68.310547 0)"/>
     <use xlink:href="#DejaVuSans-Bold-69" transform="translate(133.496094 0)"/>
     <use xlink:href="#DejaVuSans-Bold-64" transform="translate(167.773438 0)"/>
     <use xlink:href="#DejaVuSans-Bold-65" transform="translate(239.355469 0)"/>
     <use xlink:href="#DejaVuSans-Bold-6e" transform="translate(307.177734 0)"/>
     <use xlink:href="#DejaVuSans-Bold-63" transform="translate(378.369141 0)"/>
     <use xlink:href="#DejaVuSans-Bold-65" transform="translate(437.646484 0)"/>
     <use xlink:href="#DejaVuSans-Bold-20" transform="translate(505.46875 0)"/>
     <use xlink:href="#DejaVuSans-Bold-77" transform="translate(540.283203 0)"/>
     <use xlink:href="#DejaVuSans-Bold-65" transform="translate(632.666016 0)"/>
     <use xlink:href="#DejaVuSans-Bold-69" transform="translate(700.488281 0)"/>
     <use xlink:href="#DejaVuSans-Bold-67" transform="translate(734.765625 0)"/>
     <use xlink:href="#DejaVuSans-Bold-68" transform="translate(806.347656 0)"/>
     <use xlink:href="#DejaVuSans-Bold-74" transform="translate(877.539062 0)"/>
     <use xlink:href="#DejaVuSans-Bold-73" transform="translate(925.341797 0)"/>
    </g>
   </g>
   <g id="text_8">
    <!-- Evidence summary -->
    <g style="fill: #173d7a" transform="translate(85.583363 310.764375) scale(0.12 -0.12)">
     <use xlink:href="#DejaVuSans-Bold-45"/>
     <use xlink:href="#DejaVuSans-Bold-76" transform="translate(68.310547 0)"/>
     <use xlink:href="#DejaVuSans-Bold-69" transform="translate(133.496094 0)"/>
     <use xlink:href="#DejaVuSans-Bold-64" transform="translate(167.773438 0)"/>
     <use xlink:href="#DejaVuSans-Bold-65" transform="translate(239.355469 0)"/>
     <use xlink:href="#DejaVuSans-Bold-6e" transform="translate(307.177734 0)"/>
     <use xlink:href="#DejaVuSans-Bold-63" transform="translate(378.369141 0)"/>
     <use xlink:href="#DejaVuSans-Bold-65" transform="translate(437.646484 0)"/>
     <use xlink:href="#DejaVuSans-Bold-20" transform="translate(505.46875 0)"/>
     <use xlink:href="#DejaVuSans-Bold-73" transform="translate(540.283203 0)"/>
     <use xlink:href="#DejaVuSans-Bold-75" transform="translate(599.804688 0)"/>
     <use xlink:href="#DejaVuSans-Bold-6d" transform="translate(670.996094 0)"/>
     <use xlink:href="#DejaVuSans-Bold-6d" transform="translate(775.195312 0)"/>
     <use xlink:href="#DejaVuSans-Bold-61" transform="translate(879.394531 0)"/>
     <use xlink:href="#DejaVuSans-Bold-72" transform="translate(946.875 0)"/>
     <use xlink:href="#DejaVuSans-Bold-79" transform="translate(996.191406 0)"/>
    </g>
   </g>
   <g id="text_9">
    <!-- Coverage vector -->
    <g style="fill: #173d7a" transform="translate(348.037538 310.7175) scale(0.12 -0.12)">
     <use xlink:href="#DejaVuSans-Bold-43"/>
     <use xlink:href="#DejaVuSans-Bold-6f" transform="translate(73.388672 0)"/>
     <use xlink:href="#DejaVuSans-Bold-76" transform="translate(142.089844 0)"/>
     <use xlink:href="#DejaVuSans-Bold-65" transform="translate(207.275391 0)"/>
     <use xlink:href="#DejaVuSans-Bold-72" transform="translate(275.097656 0)"/>
     <use xlink:href="#DejaVuSans-Bold-61" transform="translate(324.414062 0)"/>
     <use xlink:href="#DejaVuSans-Bold-67" transform="translate(391.894531 0)"/>
     <use xlink:href="#DejaVuSans-Bold-65" transform="translate(463.476562 0)"/>
     <use xlink:href="#DejaVuSans-Bold-20" transform="translate(531.298828 0)"/>
     <use xlink:href="#DejaVuSans-Bold-76" transform="translate(566.113281 0)"/>
     <use xlink:href="#DejaVuSans-Bold-65" transform="translate(631.298828 0)"/>
     <use xlink:href="#DejaVuSans-Bold-63" transform="translate(699.121094 0)"/>
     <use xlink:href="#DejaVuSans-Bold-74" transform="translate(758.398438 0)"/>
     <use xlink:href="#DejaVuSans-Bold-6f" transform="translate(806.201172 0)"/>
     <use xlink:href="#DejaVuSans-Bold-72" transform="translate(874.902344 0)"/>
    </g>
   </g>
   <g id="text_10">
    <!-- CEC output -->
    <g style="fill: #173d7a" transform="translate(238.689825 347.27625) scale(0.12 -0.12)">
     <defs>
      <path id="DejaVuSans-Bold-70" d="M 1656 506 
L 1656 -1331 
L 538 -1331 
L 538 3500 
L 1656 3500 
L 1656 2988 
Q 1888 3294 2169 3439 
Q 2450 3584 2816 3584 
Q 3463 3584 3878 3070 
Q 4294 2556 4294 1747 
Q 4294 938 3878 423 
Q 3463 -91 2816 -91 
Q 2450 -91 2169 54 
Q 1888 200 1656 506 
z
M 2400 2772 
Q 2041 2772 1848 2508 
Q 1656 2244 1656 1747 
Q 1656 1250 1848 986 
Q 2041 722 2400 722 
Q 2759 722 2948 984 
Q 3138 1247 3138 1747 
Q 3138 2247 2948 2509 
Q 2759 2772 2400 2772 
z
" transform="scale(0.015625)"/>
     </defs>
     <use xlink:href="#DejaVuSans-Bold-43"/>
     <use xlink:href="#DejaVuSans-Bold-45" transform="translate(73.388672 0)"/>
     <use xlink:href="#DejaVuSans-Bold-43" transform="translate(141.699219 0)"/>
     <use xlink:href="#DejaVuSans-Bold-20" transform="translate(215.087891 0)"/>
     <use xlink:href="#DejaVuSans-Bold-6f" transform="translate(249.902344 0)"/>
     <use xlink:href="#DejaVuSans-Bold-75" transform="translate(318.603516 0)"/>
     <use xlink:href="#DejaVuSans-Bold-74" transform="translate(389.794922 0)"/>
     <use xlink:href="#DejaVuSans-Bold-70" transform="translate(437.597656 0)"/>
     <use xlink:href="#DejaVuSans-Bold-75" transform="translate(509.179688 0)"/>
     <use xlink:href="#DejaVuSans-Bold-74" transform="translate(580.371094 0)"/>
    </g>
   </g>
   <g id="text_11">
    <!-- Text-only RoBERTa -->
    <g style="fill: #173d7a" transform="translate(574.141441 158.843969) scale(0.118 -0.118)">
     <defs>
      <path id="DejaVuSans-Bold-2d" d="M 347 2297 
L 2309 2297 
L 2309 1388 
L 347 1388 
L 347 2297 
z
" transform="scale(0.015625)"/>
      <path id="DejaVuSans-Bold-52" d="M 2297 2597 
Q 2675 2597 2839 2737 
Q 3003 2878 3003 3200 
Q 3003 3519 2839 3656 
Q 2675 3794 2297 3794 
L 1791 3794 
L 1791 2597 
L 2297 2597 
z
M 1791 1766 
L 1791 0 
L 588 0 
L 588 4666 
L 2425 4666 
Q 3347 4666 3776 4356 
Q 4206 4047 4206 3378 
Q 4206 2916 3982 2619 
Q 3759 2322 3309 2181 
Q 3556 2125 3751 1926 
Q 3947 1728 4147 1325 
L 4800 0 
L 3519 0 
L 2950 1159 
Q 2778 1509 2601 1637 
Q 2425 1766 2131 1766 
L 1791 1766 
z
" transform="scale(0.015625)"/>
      <path id="DejaVuSans-Bold-42" d="M 2456 2859 
Q 2741 2859 2887 2984 
Q 3034 3109 3034 3353 
Q 3034 3594 2887 3720 
Q 2741 3847 2456 3847 
L 1791 3847 
L 1791 2859 
L 2456 2859 
z
M 2497 819 
Q 2859 819 3042 972 
Q 3225 1125 3225 1434 
Q 3225 1738 3044 1889 
Q 2863 2041 2497 2041 
L 1791 2041 
L 1791 819 
L 2497 819 
z
M 3616 2497 
Q 4003 2384 4215 2081 
Q 4428 1778 4428 1338 
Q 4428 663 3972 331 
Q 3516 0 2584 0 
L 588 0 
L 588 4666 
L 2394 4666 
Q 3366 4666 3802 4372 
Q 4238 4078 4238 3431 
Q 4238 3091 4078 2852 
Q 3919 2613 3616 2497 
z
" transform="scale(0.015625)"/>
     </defs>
     <use xlink:href="#DejaVuSans-Bold-54"/>
     <use xlink:href="#DejaVuSans-Bold-65" transform="translate(54.962891 0)"/>
     <use xlink:href="#DejaVuSans-Bold-78" transform="translate(122.785156 0)"/>
     <use xlink:href="#DejaVuSans-Bold-74" transform="translate(187.287109 0)"/>
     <use xlink:href="#DejaVuSans-Bold-2d" transform="translate(235.089844 0)"/>
     <use xlink:href="#DejaVuSans-Bold-6f" transform="translate(276.59375 0)"/>
     <use xlink:href="#DejaVuSans-Bold-6e" transform="translate(345.294922 0)"/>
     <use xlink:href="#DejaVuSans-Bold-6c" transform="translate(416.486328 0)"/>
     <use xlink:href="#DejaVuSans-Bold-79" transform="translate(450.763672 0)"/>
     <use xlink:href="#DejaVuSans-Bold-20" transform="translate(515.949219 0)"/>
     <use xlink:href="#DejaVuSans-Bold-52" transform="translate(550.763672 0)"/>
     <use xlink:href="#DejaVuSans-Bold-6f" transform="translate(627.765625 0)"/>
     <use xlink:href="#DejaVuSans-Bold-42" transform="translate(696.466797 0)"/>
     <use xlink:href="#DejaVuSans-Bold-45" transform="translate(772.6875 0)"/>
     <use xlink:href="#DejaVuSans-Bold-52" transform="translate(840.998047 0)"/>
     <use xlink:href="#DejaVuSans-Bold-54" transform="translate(913.5 0)"/>
     <use xlink:href="#DejaVuSans-Bold-61" transform="translate(968.837891 0)"/>
    </g>
   </g>
   <g id="text_12">
    <!-- Late fusion -->
    <g style="fill: #173d7a" transform="translate(596.223831 210.106625) scale(0.124 -0.124)">
     <defs>
      <path id="DejaVuSans-Bold-4c" d="M 588 4666 
L 1791 4666 
L 1791 909 
L 3903 909 
L 3903 0 
L 588 0 
L 588 4666 
z
" transform="scale(0.015625)"/>
     </defs>
     <use xlink:href="#DejaVuSans-Bold-4c"/>
     <use xlink:href="#DejaVuSans-Bold-61" transform="translate(63.720703 0)"/>
     <use xlink:href="#DejaVuSans-Bold-74" transform="translate(131.201172 0)"/>
     <use xlink:href="#DejaVuSans-Bold-65" transform="translate(179.003906 0)"/>
     <use xlink:href="#DejaVuSans-Bold-20" transform="translate(246.826172 0)"/>
     <use xlink:href="#DejaVuSans-Bold-66" transform="translate(281.640625 0)"/>
     <use xlink:href="#DejaVuSans-Bold-75" transform="translate(325.146484 0)"/>
     <use xlink:href="#DejaVuSans-Bold-73" transform="translate(396.337891 0)"/>
     <use xlink:href="#DejaVuSans-Bold-69" transform="translate(455.859375 0)"/>
     <use xlink:href="#DejaVuSans-Bold-6f" transform="translate(490.136719 0)"/>
     <use xlink:href="#DejaVuSans-Bold-6e" transform="translate(558.837891 0)"/>
    </g>
   </g>
   <g id="text_13">
    <!-- Final score -->
    <g style="fill: #173d7a" transform="translate(598.9998 259.276062) scale(0.118 -0.118)">
     <use xlink:href="#DejaVuSans-Bold-46"/>
     <use xlink:href="#DejaVuSans-Bold-69" transform="translate(68.310547 0)"/>
     <use xlink:href="#DejaVuSans-Bold-6e" transform="translate(102.587891 0)"/>
     <use xlink:href="#DejaVuSans-Bold-61" transform="translate(173.779297 0)"/>
     <use xlink:href="#DejaVuSans-Bold-6c" transform="translate(241.259766 0)"/>
     <use xlink:href="#DejaVuSans-Bold-20" transform="translate(275.537109 0)"/>
     <use xlink:href="#DejaVuSans-Bold-73" transform="translate(310.351562 0)"/>
     <use xlink:href="#DejaVuSans-Bold-63" transform="translate(369.873047 0)"/>
     <use xlink:href="#DejaVuSans-Bold-6f" transform="translate(429.150391 0)"/>
     <use xlink:href="#DejaVuSans-Bold-72" transform="translate(497.851562 0)"/>
     <use xlink:href="#DejaVuSans-Bold-65" transform="translate(547.167969 0)"/>
    </g>
   </g>
   <g id="text_14">
    <!-- Best variant: -->
    <g style="fill: #b91c1c" transform="translate(363.402616 267.868547) scale(0.11 -0.11)">
     <defs>
      <path id="DejaVuSans-Bold-3a" d="M 716 3500 
L 1844 3500 
L 1844 2291 
L 716 2291 
L 716 3500 
z
M 716 1209 
L 1844 1209 
L 1844 0 
L 716 0 
L 716 1209 
z
" transform="scale(0.015625)"/>
     </defs>
     <use xlink:href="#DejaVuSans-Bold-42"/>
     <use xlink:href="#DejaVuSans-Bold-65" transform="translate(76.220703 0)"/>
     <use xlink:href="#DejaVuSans-Bold-73" transform="translate(144.042969 0)"/>
     <use xlink:href="#DejaVuSans-Bold-74" transform="translate(203.564453 0)"/>
     <use xlink:href="#DejaVuSans-Bold-20" transform="translate(251.367188 0)"/>
     <use xlink:href="#DejaVuSans-Bold-76" transform="translate(286.181641 0)"/>
     <use xlink:href="#DejaVuSans-Bold-61" transform="translate(351.367188 0)"/>
     <use xlink:href="#DejaVuSans-Bold-72" transform="translate(418.847656 0)"/>
     <use xlink:href="#DejaVuSans-Bold-69" transform="translate(468.164062 0)"/>
     <use xlink:href="#DejaVuSans-Bold-61" transform="translate(502.441406 0)"/>
     <use xlink:href="#DejaVuSans-Bold-6e" transform="translate(569.921875 0)"/>
     <use xlink:href="#DejaVuSans-Bold-74" transform="translate(641.113281 0)"/>
     <use xlink:href="#DejaVuSans-Bold-3a" transform="translate(688.916016 0)"/>
    </g>
    <!-- coverage removed -->
    <g style="fill: #b91c1c" transform="translate(345.925506 280.186141) scale(0.11 -0.11)">
     <use xlink:href="#DejaVuSans-Bold-63"/>
     <use xlink:href="#DejaVuSans-Bold-6f" transform="translate(59.277344 0)"/>
     <use xlink:href="#DejaVuSans-Bold-76" transform="translate(127.978516 0)"/>
     <use xlink:href="#DejaVuSans-Bold-65" transform="translate(193.164062 0)"/>
     <use xlink:href="#DejaVuSans-Bold-72" transform="translate(260.986328 0)"/>
     <use xlink:href="#DejaVuSans-Bold-61" transform="translate(310.302734 0)"/>
     <use xlink:href="#DejaVuSans-Bold-67" transform="translate(377.783203 0)"/>
     <use xlink:href="#DejaVuSans-Bold-65" transform="translate(449.365234 0)"/>
     <use xlink:href="#DejaVuSans-Bold-20" transform="translate(517.1875 0)"/>
     <use xlink:href="#DejaVuSans-Bold-72" transform="translate(552.001953 0)"/>
     <use xlink:href="#DejaVuSans-Bold-65" transform="translate(601.318359 0)"/>
     <use xlink:href="#DejaVuSans-Bold-6d" transform="translate(669.140625 0)"/>
     <use xlink:href="#DejaVuSans-Bold-6f" transform="translate(773.339844 0)"/>
     <use xlink:href="#DejaVuSans-Bold-76" transform="translate(842.041016 0)"/>
     <use xlink:href="#DejaVuSans-Bold-65" transform="translate(907.226562 0)"/>
     <use xlink:href="#DejaVuSans-Bold-64" transform="translate(975.048828 0)"/>
    </g>
   </g>
  </g>
 </g>
 <defs>
  <clipPath id="p184fcc3691">
   <rect x="7.2" y="7.2" width="747.72" height="360.36"/>
  </clipPath>
 </defs>
</svg>
